<?xml version="1.0" standalone="no"?>
<!DOCTYPE svg PUBLIC "-//W3C//DTD SVG 20010904//EN"
 "http://www.w3.org/TR/2001/REC-SVG-20010904/DTD/svg10.dtd">
<svg version="1.0" xmlns="http://www.w3.org/2000/svg"
 width="200.000000pt" height="200.000000pt" viewBox="0 0 200.000000 200.000000"
 preserveAspectRatio="xMidYMid meet">
<metadata>
Created by potrace 1.11, written by Peter Selinger 2001-2013
</metadata>
<g transform="translate(0.000000,200.000000) scale(0.100000,-0.100000)"
fill="#000000" stroke="none">
<path d="M830 1979 c-95 -24 -198 -73 -276 -132 -128 -94 -247 -281 -270 -424
-2 -15 -7 -39 -10 -52 -7 -33 -6 -166 2 -216 3 -22 17 -74 30 -115 13 -41 22
-75 21 -75 -63 -25 -139 -92 -157 -140 -38 -99 -4 -207 81 -254 98 -56 246 15
207 97 -16 33 -58 41 -93 18 -31 -21 -48 -20 -68 2 -41 45 -20 110 50 149 l40
22 54 -63 c30 -35 66 -72 81 -82 39 -27 41 -39 10 -71 -107 -112 -146 -182
-157 -278 -22 -197 139 -377 325 -362 206 16 320 231 209 393 -73 106 -223
124 -313 37 -20 -19 -36 -38 -37 -42 0 -3 -2 -14 -4 -23 -4 -22 23 -54 51 -62
16 -5 33 3 64 29 53 44 82 45 126 1 73 -73 27 -182 -89 -210 -101 -24 -210 82
-210 204 0 72 26 122 111 211 l67 70 46 -20 c156 -70 381 -72 543 -6 l61 25
67 -69 c37 -38 76 -88 88 -110 57 -113 10 -249 -103 -296 -96 -40 -207 29
-207 129 0 30 7 45 34 72 44 44 75 44 123 1 63 -55 120 -33 114 44 -1 23 -59
78 -101 96 -44 18 -121 13 -174 -12 -102 -49 -148 -200 -95 -312 68 -141 268
-196 398 -110 96 64 152 160 157 268 5 111 -35 200 -140 313 -25 27 -46 52
-45 55 0 3 22 24 48 46 26 22 64 61 85 88 l38 47 40 -22 c68 -39 92 -98 57
-143 -24 -29 -40 -31 -74 -9 -35 23 -77 15 -93 -18 -27 -58 39 -118 130 -118
117 0 203 132 165 256 -14 46 -67 106 -122 138 l-45 27 15 35 c36 86 58 286
41 372 -59 295 -242 503 -521 592 -99 31 -271 36 -375 9z m315 -119 c321 -79
523 -410 448 -734 -47 -202 -218 -384 -414 -440 -88 -26 -99 -27 -184 -27
-279 2 -525 198 -589 471 -60 253 56 523 283 661 55 33 164 73 221 81 49 7
186 0 235 -12z"/>
<path d="M529 1458 c-28 -114 22 -233 118 -281 57 -29 145 -35 195 -14 64 27
155 125 130 141 -13 8 -424 156 -433 156 -5 0 -9 -1 -10 -2z"/>
<path d="M1255 1389 c-261 -95 -239 -83 -221 -117 19 -37 80 -90 122 -108 108
-45 245 10 303 123 26 50 24 174 -2 172 -7 0 -97 -31 -202 -70z"/>
</g>
</svg>
